<mxfile host="65bd71144e">
    <diagram id="w6LUPmaruWXQ8EAed7s3" name="Page-1">
        <mxGraphModel dx="1070" dy="499" grid="1" gridSize="10" guides="1" tooltips="1" connect="1" arrows="1" fold="1" page="1" pageScale="1" pageWidth="850" pageHeight="1100" math="0" shadow="0">
            <root>
                <mxCell id="0"/>
                <mxCell id="1" parent="0"/>
                <mxCell id="2" value="" style="swimlane;startSize=0;" vertex="1" parent="1">
                    <mxGeometry x="280" y="40" width="240" height="440" as="geometry"/>
                </mxCell>
                <mxCell id="7" value="" style="line;strokeWidth=2;html=1;" vertex="1" parent="2">
                    <mxGeometry x="190" y="30" width="30" height="10" as="geometry"/>
                </mxCell>
                <mxCell id="8" value="" style="line;strokeWidth=2;html=1;" vertex="1" parent="2">
                    <mxGeometry x="190" y="40" width="30" height="10" as="geometry"/>
                </mxCell>
                <mxCell id="24" value="VIDEO/MEDIA&lt;br&gt;FOR OAKDALE-WT,&lt;br&gt;INTRO VIDEO?&lt;br&gt;PICTURE OF BUSINESS?" style="shape=process;whiteSpace=wrap;html=1;backgroundOutline=1;" vertex="1" parent="2">
                    <mxGeometry x="20" y="60" width="200" height="140" as="geometry"/>
                </mxCell>
                <mxCell id="25" value="" style="ellipse;whiteSpace=wrap;html=1;aspect=fixed;" vertex="1" parent="2">
                    <mxGeometry x="20" y="220" width="80" height="80" as="geometry"/>
                </mxCell>
                <mxCell id="26" value="" style="ellipse;whiteSpace=wrap;html=1;aspect=fixed;" vertex="1" parent="2">
                    <mxGeometry x="80" y="320" width="80" height="80" as="geometry"/>
                </mxCell>
                <mxCell id="27" value="" style="ellipse;whiteSpace=wrap;html=1;aspect=fixed;" vertex="1" parent="2">
                    <mxGeometry x="140" y="220" width="80" height="80" as="geometry"/>
                </mxCell>
                <mxCell id="28" value="commercial" style="text;html=1;strokeColor=none;fillColor=none;align=center;verticalAlign=middle;whiteSpace=wrap;rounded=0;" vertex="1" parent="2">
                    <mxGeometry x="30" y="245" width="60" height="30" as="geometry"/>
                </mxCell>
                <mxCell id="29" value="residential" style="text;html=1;strokeColor=none;fillColor=none;align=center;verticalAlign=middle;whiteSpace=wrap;rounded=0;" vertex="1" parent="2">
                    <mxGeometry x="150" y="245" width="60" height="30" as="geometry"/>
                </mxCell>
                <mxCell id="30" value="automotive" style="text;html=1;strokeColor=none;fillColor=none;align=center;verticalAlign=middle;whiteSpace=wrap;rounded=0;" vertex="1" parent="2">
                    <mxGeometry x="90" y="345" width="60" height="30" as="geometry"/>
                </mxCell>
                <mxCell id="6" value="" style="line;strokeWidth=2;html=1;" vertex="1" parent="1">
                    <mxGeometry x="470" y="60" width="30" height="10" as="geometry"/>
                </mxCell>
                <mxCell id="12" style="edgeStyle=none;html=1;exitX=1;exitY=0.5;exitDx=0;exitDy=0;exitPerimeter=0;" edge="1" parent="1" source="9">
                    <mxGeometry relative="1" as="geometry">
                        <mxPoint x="830" y="65" as="targetPoint"/>
                    </mxGeometry>
                </mxCell>
                <mxCell id="9" value="" style="line;strokeWidth=2;html=1;" vertex="1" parent="1">
                    <mxGeometry x="800" y="60" width="30" height="10" as="geometry"/>
                </mxCell>
                <mxCell id="10" value="" style="line;strokeWidth=2;html=1;" vertex="1" parent="1">
                    <mxGeometry x="800" y="70" width="30" height="10" as="geometry"/>
                </mxCell>
                <mxCell id="11" value="" style="line;strokeWidth=2;html=1;" vertex="1" parent="1">
                    <mxGeometry x="800" y="50" width="30" height="70" as="geometry"/>
                </mxCell>
                <mxCell id="15" value="" style="swimlane;startSize=0;" vertex="1" parent="1">
                    <mxGeometry x="640" y="50" width="200" height="230" as="geometry"/>
                </mxCell>
                <mxCell id="16" value="NAV LINK 1" style="html=1;whiteSpace=wrap;container=1;recursiveResize=0;collapsible=0;" vertex="1" parent="15">
                    <mxGeometry x="35" y="60" width="130" height="30" as="geometry"/>
                </mxCell>
                <mxCell id="18" value="NAV LINK 2" style="html=1;whiteSpace=wrap;container=1;recursiveResize=0;collapsible=0;" vertex="1" parent="15">
                    <mxGeometry x="35" y="100" width="130" height="30" as="geometry"/>
                </mxCell>
                <mxCell id="19" value="NAV LINK 3" style="html=1;whiteSpace=wrap;container=1;recursiveResize=0;collapsible=0;" vertex="1" parent="15">
                    <mxGeometry x="35" y="140" width="130" height="30" as="geometry"/>
                </mxCell>
                <mxCell id="20" value="NAV LINK 4" style="html=1;whiteSpace=wrap;container=1;recursiveResize=0;collapsible=0;" vertex="1" parent="15">
                    <mxGeometry x="35" y="180" width="130" height="30" as="geometry"/>
                </mxCell>
                <mxCell id="21" value="" style="endArrow=classic;html=1;entryX=0.005;entryY=0.148;entryDx=0;entryDy=0;entryPerimeter=0;" edge="1" parent="1" target="15">
                    <mxGeometry width="50" height="50" relative="1" as="geometry">
                        <mxPoint x="510" y="84" as="sourcePoint"/>
                        <mxPoint x="450" y="240" as="targetPoint"/>
                        <Array as="points"/>
                    </mxGeometry>
                </mxCell>
                <mxCell id="31" value="" style="endArrow=none;html=1;entryX=0.5;entryY=1;entryDx=0;entryDy=0;" edge="1" parent="1" target="2">
                    <mxGeometry width="50" height="50" relative="1" as="geometry">
                        <mxPoint x="400" y="520" as="sourcePoint"/>
                        <mxPoint x="450" y="510" as="targetPoint"/>
                    </mxGeometry>
                </mxCell>
                <mxCell id="32" value="" style="swimlane;startSize=0;" vertex="1" parent="1">
                    <mxGeometry x="280" y="520" width="240" height="440" as="geometry"/>
                </mxCell>
                <mxCell id="34" value="" style="line;strokeWidth=2;html=1;" vertex="1" parent="32">
                    <mxGeometry x="190" y="20" width="30" height="10" as="geometry"/>
                </mxCell>
                <mxCell id="35" value="" style="line;strokeWidth=2;html=1;" vertex="1" parent="32">
                    <mxGeometry x="190" y="30" width="30" height="10" as="geometry"/>
                </mxCell>
                <mxCell id="36" value="" style="line;strokeWidth=2;html=1;" vertex="1" parent="32">
                    <mxGeometry x="190" y="40" width="30" height="10" as="geometry"/>
                </mxCell>
                <mxCell id="39" value="" style="shape=process;whiteSpace=wrap;html=1;backgroundOutline=1;" vertex="1" parent="32">
                    <mxGeometry x="20" y="100" width="200" height="120" as="geometry"/>
                </mxCell>
                <mxCell id="41" value="PROJECT COMPONENT" style="text;html=1;strokeColor=none;fillColor=none;align=center;verticalAlign=middle;whiteSpace=wrap;rounded=0;" vertex="1" parent="32">
                    <mxGeometry x="40" y="145" width="160" height="30" as="geometry"/>
                </mxCell>
                <mxCell id="47" value="PROJECT COMPONENT" style="shape=process;whiteSpace=wrap;html=1;backgroundOutline=1;" vertex="1" parent="32">
                    <mxGeometry x="20" y="270" width="200" height="120" as="geometry"/>
                </mxCell>
                <mxCell id="42" value="" style="swimlane;startSize=0;" vertex="1" parent="1">
                    <mxGeometry x="590" y="520" width="200" height="440" as="geometry"/>
                </mxCell>
                <mxCell id="44" value="MEDIA DISPLAY FOR PROJECT" style="shape=process;whiteSpace=wrap;html=1;backgroundOutline=1;" vertex="1" parent="42">
                    <mxGeometry x="10" y="40" width="180" height="130" as="geometry"/>
                </mxCell>
                <mxCell id="45" value="DESCRIPTION OF PROJECT" style="rounded=0;whiteSpace=wrap;html=1;" vertex="1" parent="42">
                    <mxGeometry x="10" y="180" width="180" height="140" as="geometry"/>
                </mxCell>
                <mxCell id="46" value="TESTIMONIAL FROM CUSTOMER ABOUT PROJECT" style="rounded=0;whiteSpace=wrap;html=1;" vertex="1" parent="42">
                    <mxGeometry x="10" y="330" width="180" height="100" as="geometry"/>
                </mxCell>
                <mxCell id="43" value="" style="endArrow=classic;html=1;entryX=-0.02;entryY=0.357;entryDx=0;entryDy=0;entryPerimeter=0;" edge="1" parent="1" target="42">
                    <mxGeometry width="50" height="50" relative="1" as="geometry">
                        <mxPoint x="500" y="677" as="sourcePoint"/>
                        <mxPoint x="450" y="630" as="targetPoint"/>
                    </mxGeometry>
                </mxCell>
                <mxCell id="49" value="PROJECT COMPONENT" style="text;html=1;strokeColor=none;fillColor=none;align=center;verticalAlign=middle;whiteSpace=wrap;rounded=0;" vertex="1" parent="1">
                    <mxGeometry x="590" y="480" width="200" height="30" as="geometry"/>
                </mxCell>
                <mxCell id="50" value="MOBILE NAVBAR" style="text;html=1;strokeColor=none;fillColor=none;align=center;verticalAlign=middle;whiteSpace=wrap;rounded=0;" vertex="1" parent="1">
                    <mxGeometry x="640" y="10" width="200" height="30" as="geometry"/>
                </mxCell>
                <mxCell id="51" value="ROUTE LINKS TO DIFFERENT SECTIONS OF WEBSITE" style="rounded=0;whiteSpace=wrap;html=1;" vertex="1" parent="1">
                    <mxGeometry x="60" y="240" width="120" height="80" as="geometry"/>
                </mxCell>
                <mxCell id="52" value="" style="endArrow=none;html=1;exitX=1;exitY=0;exitDx=0;exitDy=0;entryX=0.288;entryY=0.063;entryDx=0;entryDy=0;entryPerimeter=0;" edge="1" parent="1" source="51" target="27">
                    <mxGeometry width="50" height="50" relative="1" as="geometry">
                        <mxPoint x="400" y="340" as="sourcePoint"/>
                        <mxPoint x="450" y="290" as="targetPoint"/>
                    </mxGeometry>
                </mxCell>
                <mxCell id="53" value="" style="endArrow=none;html=1;exitX=1;exitY=0.163;exitDx=0;exitDy=0;exitPerimeter=0;entryX=0;entryY=0.375;entryDx=0;entryDy=0;entryPerimeter=0;" edge="1" parent="1" source="51" target="25">
                    <mxGeometry width="50" height="50" relative="1" as="geometry">
                        <mxPoint x="400" y="340" as="sourcePoint"/>
                        <mxPoint x="450" y="290" as="targetPoint"/>
                    </mxGeometry>
                </mxCell>
                <mxCell id="54" value="" style="endArrow=none;html=1;entryX=0.025;entryY=0.3;entryDx=0;entryDy=0;entryPerimeter=0;exitX=1.025;exitY=0.388;exitDx=0;exitDy=0;exitPerimeter=0;" edge="1" parent="1" source="51" target="26">
                    <mxGeometry width="50" height="50" relative="1" as="geometry">
                        <mxPoint x="400" y="340" as="sourcePoint"/>
                        <mxPoint x="450" y="290" as="targetPoint"/>
                    </mxGeometry>
                </mxCell>
            </root>
        </mxGraphModel>
    </diagram>
</mxfile>